<svg width="123" height="44" viewBox="0 0 123 44" fill="none" xmlns="http://www.w3.org/2000/svg">
<path d="M16.8911 11.1604V34.2112C16.5382 34.3074 16.0409 34.3876 15.3992 34.4518C14.7576 34.548 14.0839 34.5961 13.3781 34.5961C11.8703 34.5961 10.8116 34.3395 10.202 33.8262C9.59245 33.3129 9.28767 32.3825 9.28767 31.0351V11.1604H1.73242C1.53992 10.8396 1.34743 10.4225 1.15494 9.90921C0.994535 9.39591 0.91433 8.83448 0.91433 8.22492C0.91433 7.13414 1.15494 6.34814 1.63617 5.86691C2.1174 5.3536 2.77507 5.09695 3.6092 5.09695H24.6388C24.8634 5.41777 25.0559 5.83483 25.2163 6.34814C25.3767 6.86145 25.4569 7.42288 25.4569 8.03243C25.4569 9.09113 25.2163 9.87713 24.735 10.3904C24.2538 10.9038 23.5961 11.1604 22.762 11.1604H16.8911ZM34.5889 34.2112C34.2681 34.3074 33.8189 34.3876 33.2415 34.4518C32.664 34.548 32.0224 34.5961 31.3166 34.5961C29.8729 34.5961 28.8302 34.3716 28.1886 33.9224C27.547 33.4412 27.2261 32.5269 27.2261 31.1794V16.502C27.2261 15.6037 27.4507 14.8338 27.8999 14.1921C28.349 13.5505 28.9746 12.9891 29.7766 12.5078C30.8353 11.8662 32.1026 11.3689 33.5783 11.016C35.0862 10.6311 36.6582 10.4386 38.2944 10.4386C41.6309 10.4386 43.2991 11.5614 43.2991 13.8072C43.2991 14.3525 43.2189 14.8498 43.0585 15.299C42.8981 15.7481 42.7216 16.1331 42.5291 16.4539C41.7913 16.2935 40.893 16.2133 39.8343 16.2133C38.9039 16.2133 37.9735 16.3256 37.0432 16.5501C36.1128 16.7747 35.2947 17.0795 34.5889 17.4645V34.2112ZM54.2842 34.2112C53.9634 34.3074 53.5143 34.3876 52.9368 34.4518C52.3593 34.548 51.7177 34.5961 51.0119 34.5961C49.5682 34.5961 48.5256 34.3716 47.8839 33.9224C47.2744 33.4412 46.9696 32.5269 46.9696 31.1794V11.401C47.2904 11.3048 47.7395 11.2085 48.317 11.1123C48.8945 11.016 49.5361 10.9679 50.2419 10.9679C51.6856 10.9679 52.7122 11.2085 53.3218 11.6898C53.9634 12.171 54.2842 13.0853 54.2842 14.4327V34.2112ZM46.5365 4.47136C46.5365 3.38057 46.9054 2.4502 47.6433 1.68024C48.4133 0.910279 49.4078 0.525298 50.6269 0.525298C51.846 0.525298 52.8245 0.910279 53.5624 1.68024C54.3324 2.4502 54.7173 3.38057 54.7173 4.47136C54.7173 5.59422 54.3324 6.54063 53.5624 7.31059C52.8245 8.08056 51.846 8.46554 50.6269 8.46554C49.4078 8.46554 48.4133 8.08056 47.6433 7.31059C46.9054 6.54063 46.5365 5.59422 46.5365 4.47136ZM71.5321 34.9811C70.6979 34.9811 69.928 34.9009 69.2222 34.7405C68.5164 34.6122 67.8747 34.4357 67.2973 34.2112V42.8251C66.9765 42.9214 66.5273 43.0176 65.9498 43.1138C65.3724 43.2101 64.7307 43.2582 64.0249 43.2582C62.5813 43.2582 61.5386 43.0176 60.897 42.5364C60.2553 42.0551 59.9345 41.1408 59.9345 39.7934V15.9727C59.9345 15.1385 60.111 14.4648 60.4639 13.9515C60.8168 13.4061 61.314 12.9249 61.9557 12.5078C62.9181 11.8983 64.1533 11.401 65.6611 11.016C67.1689 10.599 68.8372 10.3904 70.6659 10.3904C72.5266 10.3904 74.2269 10.6311 75.7669 11.1123C77.3389 11.5614 78.6863 12.2833 79.8092 13.2778C80.932 14.2723 81.7982 15.5396 82.4078 17.0795C83.0494 18.6194 83.3702 20.4481 83.3702 22.5655C83.3702 24.5866 83.0655 26.3832 82.4559 27.9552C81.8784 29.4951 81.0604 30.7944 80.0017 31.8531C78.943 32.8798 77.6918 33.6658 76.2481 34.2112C74.8044 34.7245 73.2324 34.9811 71.5321 34.9811ZM70.4252 29.1583C72.1577 29.1583 73.4891 28.6129 74.4194 27.5221C75.3819 26.4313 75.8631 24.7791 75.8631 22.5655C75.8631 20.2877 75.3979 18.6515 74.4675 17.657C73.5693 16.6624 72.302 16.1652 70.6659 16.1652C69.928 16.1652 69.2863 16.2614 68.741 16.4539C68.1956 16.6143 67.6983 16.8068 67.2492 17.0314V28.3402C67.6983 28.5968 68.1795 28.8054 68.6928 28.9658C69.2061 29.0941 69.7836 29.1583 70.4252 29.1583ZM99.353 34.9811C98.5188 34.9811 97.7489 34.9009 97.0431 34.7405C96.3373 34.6122 95.6957 34.4357 95.1182 34.2112V42.8251C94.7974 42.9214 94.3482 43.0176 93.7707 43.1138C93.1933 43.2101 92.5516 43.2582 91.8458 43.2582C90.4022 43.2582 89.3595 43.0176 88.7179 42.5364C88.0762 42.0551 87.7554 41.1408 87.7554 39.7934V15.9727C87.7554 15.1385 87.9319 14.4648 88.2848 13.9515C88.6377 13.4061 89.1349 12.9249 89.7766 12.5078C90.739 11.8983 91.9742 11.401 93.482 11.016C94.9899 10.599 96.6581 10.3904 98.4868 10.3904C100.348 10.3904 102.048 10.6311 103.588 11.1123C105.16 11.5614 106.507 12.2833 107.63 13.2778C108.753 14.2723 109.619 15.5396 110.229 17.0795C110.87 18.6194 111.191 20.4481 111.191 22.5655C111.191 24.5866 110.886 26.3832 110.277 27.9552C109.699 29.4951 108.881 30.7944 107.823 31.8531C106.764 32.8798 105.513 33.6658 104.069 34.2112C102.625 34.7245 101.053 34.9811 99.353 34.9811ZM98.2462 29.1583C99.9786 29.1583 101.31 28.6129 102.24 27.5221C103.203 26.4313 103.684 24.7791 103.684 22.5655C103.684 20.2877 103.219 18.6515 102.288 17.657C101.39 16.6624 100.123 16.1652 98.4868 16.1652C97.7489 16.1652 97.1073 16.2614 96.5619 16.4539C96.0165 16.6143 95.5192 16.8068 95.0701 17.0314V28.3402C95.5192 28.5968 96.0004 28.8054 96.5137 28.9658C97.027 29.0941 97.6045 29.1583 98.2462 29.1583Z" fill="#221314"/>
<path d="M113.892 30.6982C113.892 29.4791 114.261 28.4525 114.999 27.6184C115.769 26.7842 116.828 26.3672 118.175 26.3672C119.49 26.3672 120.533 26.7842 121.303 27.6184C122.073 28.4525 122.458 29.4791 122.458 30.6982C122.458 31.9173 122.073 32.9439 121.303 33.7781C120.533 34.6122 119.49 35.0292 118.175 35.0292C116.828 35.0292 115.769 34.6122 114.999 33.7781C114.261 32.9439 113.892 31.9173 113.892 30.6982Z" fill="#FE5B3E"/>
</svg>
